<svg width="40" height="40" viewBox="0 0 40 40" fill="none" xmlns="http://www.w3.org/2000/svg">
<path fill-rule="evenodd" clip-rule="evenodd" d="M20.2614 3.97977C20.5585 4.13385 20.8351 4.33597 21.0768 4.57766L35.4215 18.9224C36.7243 20.2252 36.7233 22.3346 35.4215 23.6364L23.6364 35.4215C22.3346 36.7233 20.2252 36.7243 18.9224 35.4215L4.57766 21.0768C3.95388 20.453 3.60142 19.604 3.60156 18.7199V6.93483C3.60127 5.09369 5.09369 3.60127 6.93483 3.60156H18.7199C19.2623 3.60243 19.7895 3.73348 20.2614 3.97977ZM14.2083 14.2083C15.5101 12.9065 15.5111 10.7971 14.2083 9.49426C12.9055 8.19145 10.7961 8.19246 9.49426 9.49426C8.19246 10.7961 8.19145 12.9055 9.49426 14.2083C10.7971 15.5111 12.9065 15.5101 14.2083 14.2083Z" fill="#E4003F"/>
</svg>
