<svg width="40" height="40" viewBox="0 0 40 40" fill="none" xmlns="http://www.w3.org/2000/svg">
<path d="M3.33325 8.33317C3.33325 7.4127 4.07944 6.6665 4.99992 6.6665H21.6666C22.5871 6.6665 23.3333 7.4127 23.3333 8.33317V29.9998H18.3333C17.4128 29.9998 16.6938 29.2332 16.3926 28.3633C15.7148 26.4056 13.8549 24.9998 11.6666 24.9998C9.47828 24.9998 7.61833 26.4056 6.94054 28.3633C6.63939 29.2332 5.92039 29.9998 4.99992 29.9998V29.9998C4.07944 29.9998 3.33325 29.2536 3.33325 28.3332V8.33317Z" fill="#0DA678"/>
<path d="M14.9999 29.9998C14.9999 28.1588 13.5075 26.6665 11.6666 26.6665C9.82566 26.6665 8.33325 28.1588 8.33325 29.9998C8.33325 31.8409 9.82566 33.3332 11.6666 33.3332C13.5075 33.3332 14.9999 31.8409 14.9999 29.9998Z" fill="#0DA678"/>
<path fill-rule="evenodd" clip-rule="evenodd" d="M23.3333 8.33317L35.7453 14.5392C36.3099 14.8215 36.6666 15.3986 36.6666 16.0299V29.1665C36.6666 29.6267 36.2935 29.9998 35.8333 29.9998V29.9998C35.373 29.9998 35.0072 29.6239 34.9314 29.17C34.5361 26.8035 32.4786 24.9998 29.9999 24.9998C27.8116 24.9998 25.9517 26.4056 25.2739 28.3633C24.9727 29.2332 24.2537 29.9998 23.3333 29.9998V29.9998V8.33317ZM24.9999 14.3632C24.9999 13.1243 26.3038 12.3184 27.4119 12.8725L34.0786 16.2058C34.6432 16.4882 34.9999 17.0653 34.9999 17.6966V18.3332C34.9999 19.2536 34.2537 19.9998 33.3333 19.9998H26.6666C25.7461 19.9998 24.9999 19.2536 24.9999 18.3332V14.3632Z" fill="#0DA678"/>
<path d="M33.3333 29.9998C33.3333 28.1588 31.8408 26.6665 29.9999 26.6665C28.159 26.6665 26.6666 28.1588 26.6666 29.9998C26.6666 31.8409 28.159 33.3332 29.9999 33.3332C31.8408 33.3332 33.3333 31.8409 33.3333 29.9998Z" fill="#0DA678"/>
</svg>
