<svg width="40" height="40" viewBox="0 0 40 40" fill="none" xmlns="http://www.w3.org/2000/svg">
<path fill-rule="evenodd" clip-rule="evenodd" d="M19.9998 36.6666C12.8115 34.4596 7.55029 27.731 6.6665 21.6666V9.99992L19.9998 3.33325L33.3332 9.99992V21.6666C32.4494 27.731 27.1882 34.4596 19.9998 36.6666ZM24.9998 30.0882V29.9999H25.0951L24.9998 30.0882ZM12.321 21.3809C11.6696 20.7295 11.6702 19.6747 12.321 19.0239C12.9718 18.373 14.0266 18.3725 14.678 19.0239L18.2136 22.5594L25.2846 15.4883C25.9355 14.8375 26.9903 14.8369 27.6417 15.4883C28.2931 16.1397 28.2925 17.1945 27.6417 17.8454L19.3921 26.0949C18.7413 26.7458 17.6865 26.7463 17.0351 26.0949L12.321 21.3809Z" fill="#17B5BF"/>
</svg>
