<svg width="20" height="20" viewBox="0 0 20 20" fill="none" xmlns="http://www.w3.org/2000/svg">
<path fill-rule="evenodd" clip-rule="evenodd" d="M1.66666 2.50008C1.66666 2.03984 2.03975 1.66675 2.49999 1.66675H4.99999C5.46023 1.66675 5.83332 2.03984 5.83332 2.50008V5.00008C5.83332 5.46032 5.46023 5.83341 4.99999 5.83341H2.49999C2.03975 5.83341 1.66666 5.46032 1.66666 5.00008V2.50008ZM1.66666 8.75008C1.66666 8.28984 2.03975 7.91675 2.49999 7.91675H4.99999C5.46023 7.91675 5.83332 8.28984 5.83332 8.75008V11.2501C5.83332 11.7103 5.46023 12.0834 4.99999 12.0834H2.49999C2.03975 12.0834 1.66666 11.7103 1.66666 11.2501V8.75008ZM2.49999 14.1667C2.03975 14.1667 1.66666 14.5398 1.66666 15.0001V17.5001C1.66666 17.9603 2.03975 18.3334 2.49999 18.3334H4.99999C5.46023 18.3334 5.83332 17.9603 5.83332 17.5001V15.0001C5.83332 14.5398 5.46023 14.1667 4.99999 14.1667H2.49999ZM14.1667 2.50008C14.1667 2.03984 14.5398 1.66675 15 1.66675H17.5C17.9602 1.66675 18.3333 2.03984 18.3333 2.50008V5.00008C18.3333 5.46032 17.9602 5.83341 17.5 5.83341H15C14.5398 5.83341 14.1667 5.46032 14.1667 5.00008V2.50008ZM15 7.91675C14.5398 7.91675 14.1667 8.28984 14.1667 8.75008V11.2501C14.1667 11.7103 14.5398 12.0834 15 12.0834H17.5C17.9602 12.0834 18.3333 11.7103 18.3333 11.2501V8.75008C18.3333 8.28984 17.9602 7.91675 17.5 7.91675H15ZM14.1667 15.0001C14.1667 14.5398 14.5398 14.1667 15 14.1667H17.5C17.9602 14.1667 18.3333 14.5398 18.3333 15.0001V17.5001C18.3333 17.9603 17.9602 18.3334 17.5 18.3334H15C14.5398 18.3334 14.1667 17.9603 14.1667 17.5001V15.0001ZM8.74999 1.66675C8.28975 1.66675 7.91666 2.03984 7.91666 2.50008V5.00008C7.91666 5.46032 8.28975 5.83341 8.74999 5.83341H11.25C11.7102 5.83341 12.0833 5.46032 12.0833 5.00008V2.50008C12.0833 2.03984 11.7102 1.66675 11.25 1.66675H8.74999ZM7.91666 8.75008C7.91666 8.28984 8.28975 7.91675 8.74999 7.91675H11.25C11.7102 7.91675 12.0833 8.28984 12.0833 8.75008V11.2501C12.0833 11.7103 11.7102 12.0834 11.25 12.0834H8.74999C8.28975 12.0834 7.91666 11.7103 7.91666 11.2501V8.75008ZM8.74999 14.1667C8.28975 14.1667 7.91666 14.5398 7.91666 15.0001V17.5001C7.91666 17.9603 8.28975 18.3334 8.74999 18.3334H11.25C11.7102 18.3334 12.0833 17.9603 12.0833 17.5001V15.0001C12.0833 14.5398 11.7102 14.1667 11.25 14.1667H8.74999Z" fill="#586A84"/>
</svg>
