<svg width="20" height="20" viewBox="0 0 20 20" fill="none" xmlns="http://www.w3.org/2000/svg">
<path fill-rule="evenodd" clip-rule="evenodd" d="M2.49999 1.66675C2.03975 1.66675 1.66666 2.03984 1.66666 2.50008V5.00008C1.66666 5.46032 2.03975 5.83341 2.49999 5.83341H4.99999C5.46023 5.83341 5.83332 5.46032 5.83332 5.00008V2.50008C5.83332 2.03984 5.46023 1.66675 4.99999 1.66675H2.49999ZM2.49999 7.91675C2.03975 7.91675 1.66666 8.28984 1.66666 8.75008V11.2501C1.66666 11.7103 2.03975 12.0834 2.49999 12.0834H4.99999C5.46023 12.0834 5.83332 11.7103 5.83332 11.2501V8.75008C5.83332 8.28984 5.46023 7.91675 4.99999 7.91675H2.49999ZM1.66666 15.0001C1.66666 14.5398 2.03975 14.1667 2.49999 14.1667H4.99999C5.46023 14.1667 5.83332 14.5398 5.83332 15.0001V17.5001C5.83332 17.9603 5.46023 18.3334 4.99999 18.3334H2.49999C2.03975 18.3334 1.66666 17.9603 1.66666 17.5001V15.0001ZM8.33332 1.66675C7.87309 1.66675 7.49999 2.03984 7.49999 2.50008V5.00008C7.49999 5.46032 7.87308 5.83341 8.33332 5.83341H17.5C17.9602 5.83341 18.3333 5.46032 18.3333 5.00008V2.50008C18.3333 2.03984 17.9602 1.66675 17.5 1.66675H8.33332ZM7.49999 8.75008C7.49999 8.28984 7.87309 7.91675 8.33332 7.91675H17.5C17.9602 7.91675 18.3333 8.28984 18.3333 8.75008V11.2501C18.3333 11.7103 17.9602 12.0834 17.5 12.0834H8.33332C7.87308 12.0834 7.49999 11.7103 7.49999 11.2501V8.75008ZM8.33332 14.1667C7.87309 14.1667 7.49999 14.5398 7.49999 15.0001V17.5001C7.49999 17.9603 7.87308 18.3334 8.33332 18.3334H17.5C17.9602 18.3334 18.3333 17.9603 18.3333 17.5001V15.0001C18.3333 14.5398 17.9602 14.1667 17.5 14.1667H8.33332Z" fill="#586A84"/>
</svg>
