<svg width="20" height="20" viewBox="0 0 20 20" fill="none" xmlns="http://www.w3.org/2000/svg">
<path fill-rule="evenodd" clip-rule="evenodd" d="M13.3334 3.33334H6.66675C4.8258 3.33334 3.33341 4.82572 3.33341 6.66667V13.3333C3.33341 15.1743 4.8258 16.6667 6.66675 16.6667H13.3334C15.1744 16.6667 16.6667 15.1743 16.6667 13.3333V6.66667C16.6667 4.82572 15.1744 3.33334 13.3334 3.33334ZM6.66675 1.66667C3.90532 1.66667 1.66675 3.90525 1.66675 6.66667V13.3333C1.66675 16.0948 3.90532 18.3333 6.66675 18.3333H13.3334C16.0948 18.3333 18.3334 16.0948 18.3334 13.3333V6.66667C18.3334 3.90525 16.0948 1.66667 13.3334 1.66667H6.66675ZM10.0001 12.5C11.3808 12.5 12.5001 11.3807 12.5001 10C12.5001 8.61929 11.3808 7.5 10.0001 7.5C8.61937 7.5 7.50008 8.61929 7.50008 10C7.50008 11.3807 8.61937 12.5 10.0001 12.5ZM10.0001 14.1667C12.3013 14.1667 14.1667 12.3012 14.1667 10C14.1667 7.69882 12.3013 5.83334 10.0001 5.83334C7.69889 5.83334 5.83341 7.69882 5.83341 10C5.83341 12.3012 7.69889 14.1667 10.0001 14.1667ZM14.1664 7.00009C14.8108 7.00009 15.3331 6.47775 15.3331 5.83342C15.3331 5.18909 14.8108 4.66675 14.1664 4.66675C13.5221 4.66675 12.9998 5.18909 12.9998 5.83342C12.9998 6.47775 13.5221 7.00009 14.1664 7.00009Z" fill="#7D8FA9"/>
</svg>
