<svg width="20" height="20" viewBox="0 0 20 20" fill="none" xmlns="http://www.w3.org/2000/svg">
<path d="M5.25063 6.38285V18.3334H2.05867V6.38285H5.25063ZM1.85986 3.2682C1.85986 2.80432 2.02185 2.42143 2.34584 2.11954C2.66982 1.81765 3.10425 1.6667 3.64913 1.6667C4.18664 1.6667 4.61739 1.81765 4.94137 2.11954C5.27272 2.42143 5.43839 2.80432 5.43839 3.2682C5.43839 3.73209 5.27272 4.11498 4.94137 4.41687C4.61739 4.71876 4.18664 4.86971 3.64913 4.86971C3.10425 4.86971 2.66982 4.71876 2.34584 4.41687C2.02185 4.11498 1.85986 3.73209 1.85986 3.2682Z" fill="#7D8FA9"/>
<path d="M10.9939 8.93421V18.3334H7.81303V6.38285H10.7951L10.9939 8.93421ZM10.5301 11.9384H9.66857C9.66857 11.0548 9.7827 10.2596 10.011 9.55272C10.2392 8.83849 10.5595 8.23102 10.9719 7.73032C11.3842 7.22226 11.8739 6.83569 12.4408 6.57061C13.0152 6.29817 13.6558 6.16195 14.3626 6.16195C14.9222 6.16195 15.434 6.24295 15.8979 6.40494C16.3617 6.56693 16.7594 6.82464 17.0907 7.17808C17.4294 7.53151 17.6871 7.99908 17.8638 8.58077C18.0479 9.16247 18.14 9.87302 18.14 10.7124V18.3334H14.937V10.7014C14.937 10.1712 14.8633 9.75889 14.7161 9.46436C14.5688 9.16983 14.3516 8.96366 14.0644 8.84585C13.7846 8.72067 13.4385 8.65809 13.0262 8.65809C12.5991 8.65809 12.2273 8.74276 11.9107 8.91212C11.6014 9.08147 11.3437 9.3171 11.1375 9.61899C10.9387 9.91352 10.7878 10.2596 10.6847 10.6572C10.5816 11.0548 10.5301 11.4819 10.5301 11.9384Z" fill="#7D8FA9"/>
</svg>
