<svg width="70" height="24" viewBox="0 0 70 24" fill="none" xmlns="http://www.w3.org/2000/svg">
<path d="M39.1013 4.33744H30.899V19.0767H39.1013V4.33744Z" fill="#FF5F00"/>
<path d="M31.4198 11.7071C31.4185 10.2876 31.7402 8.88639 32.3605 7.60959C32.9808 6.33278 33.8835 5.21383 35.0001 4.33744C33.6173 3.25051 31.9565 2.57457 30.2076 2.38687C28.4588 2.19917 26.6924 2.50727 25.1103 3.27599C23.5283 4.0447 22.1945 5.243 21.2613 6.73392C20.3281 8.22484 19.8333 9.94821 19.8333 11.7071C19.8333 13.4659 20.3281 15.1893 21.2613 16.6802C22.1945 18.1712 23.5283 19.3695 25.1103 20.1382C26.6924 20.9069 28.4588 21.215 30.2076 21.0273C31.9565 20.8396 33.6173 20.1636 35.0001 19.0767C33.8835 18.2003 32.9808 17.0814 32.3605 15.8046C31.7402 14.5278 31.4185 13.1266 31.4198 11.7071Z" fill="#EB001B"/>
<path d="M50.1666 11.7071C50.1667 13.4659 49.6718 15.1893 48.7387 16.6802C47.8056 18.1711 46.4718 19.3694 44.8898 20.1381C43.3078 20.9069 41.5414 21.215 39.7926 21.0273C38.0437 20.8396 36.383 20.1636 35.0001 19.0767C36.1159 18.1994 37.0178 17.0803 37.638 15.8037C38.2582 14.5271 38.5805 13.1263 38.5805 11.7071C38.5805 10.2878 38.2582 8.88705 37.638 7.61045C37.0178 6.33385 36.1159 5.21472 35.0001 4.33744C36.383 3.25051 38.0437 2.57457 39.7926 2.38687C41.5414 2.19917 43.3078 2.50729 44.8898 3.27601C46.4718 4.04473 47.8056 5.24303 48.7387 6.73395C49.6718 8.22487 50.1667 9.94824 50.1666 11.7071Z" fill="#F79E1B"/>
</svg>
