<svg width="70" height="24" viewBox="0 0 70 24" fill="none" xmlns="http://www.w3.org/2000/svg">
<path d="M28.7048 10.587C28.573 11.5754 27.7823 11.5754 27.0575 11.5754H26.6622L26.9916 9.66458C26.9916 9.5328 27.1234 9.46691 27.2552 9.46691H27.4529C27.98 9.46691 28.4412 9.46691 28.7048 9.73047C28.7048 9.99403 28.7048 10.2576 28.7048 10.587ZM28.3753 7.95145H25.5421C25.3444 7.95145 25.2126 8.08323 25.1467 8.2809L24.0266 15.5287C24.0266 15.6605 24.0925 15.7923 24.2902 15.7923H25.608C25.8056 15.7923 25.9374 15.6605 26.0033 15.4629L26.3327 13.4862C26.3327 13.2885 26.5304 13.1567 26.7281 13.1567H27.6505C29.4954 13.1567 30.5497 12.2343 30.8791 10.4553C31.0109 9.66458 30.8791 9.07158 30.5497 8.61035C30.0225 8.21501 29.2978 7.95145 28.3753 7.95145Z" fill="#263577"/>
<path d="M34.8985 13.2226C34.7667 14.0133 34.1737 14.5404 33.383 14.5404C32.9877 14.5404 32.6583 14.4087 32.4606 14.1451C32.2629 13.8815 32.197 13.5521 32.2629 13.2226C32.3947 12.432 32.9877 11.9049 33.7784 11.9049C34.1737 11.9049 34.5032 12.0366 34.7008 12.3002C34.8326 12.4979 34.9644 12.8273 34.8985 13.2226ZM36.7434 10.5871H35.4256C35.2938 10.5871 35.2279 10.653 35.162 10.7847L35.0962 11.1801L35.0303 11.0483C34.7667 10.653 34.1078 10.4553 33.4489 10.4553C31.9335 10.4553 30.6816 11.5754 30.418 13.1568C30.2862 13.9474 30.4839 14.6722 30.9451 15.1993C31.3405 15.6606 31.9335 15.8582 32.6582 15.8582C33.8443 15.8582 34.5031 15.0676 34.5031 15.0676L34.4373 15.4629C34.4373 15.5947 34.5032 15.7264 34.7008 15.7264H35.8868C36.0845 15.7264 36.2163 15.5947 36.2822 15.397L37.007 10.7847C37.007 10.7188 36.9411 10.5871 36.7434 10.5871Z" fill="#263577"/>
<path d="M43.9252 10.587H42.5415C42.4098 10.587 42.278 10.6529 42.2121 10.7847L40.3672 13.5521L39.5765 10.9165C39.5106 10.7188 39.3788 10.6529 39.1812 10.6529H37.8634C37.7316 10.6529 37.5998 10.7847 37.6657 10.9824L39.1812 15.3311L37.7975 17.3078C37.6657 17.4395 37.7975 17.7031 37.9952 17.7031H39.3789C39.5106 17.7031 39.6424 17.6372 39.7083 17.5054L44.1888 10.9824C44.2547 10.7847 44.1229 10.587 43.9252 10.587Z" fill="#263577"/>
<path d="M48.735 10.587C48.6033 11.5754 47.8126 11.5754 47.0878 11.5754H46.6925L47.0219 9.66458C47.0219 9.5328 47.1537 9.46691 47.2855 9.46691H47.4831C48.0103 9.46691 48.4715 9.46691 48.735 9.73047C48.8009 9.99403 48.8009 10.2576 48.735 10.587ZM48.4056 7.95145H45.5724C45.3747 7.95145 45.2429 8.08323 45.177 8.2809L44.0569 15.5287C44.0569 15.6605 44.1228 15.7923 44.3205 15.7923H45.77C45.9018 15.7923 46.0336 15.7264 46.0336 15.5287L46.363 13.4862C46.363 13.2885 46.5607 13.1567 46.7584 13.1567H47.6808C49.5257 13.1567 50.58 12.2343 50.9094 10.4553C51.0412 9.66458 50.9094 9.07158 50.58 8.61035C50.1187 8.21501 49.3939 7.95145 48.4056 7.95145Z" fill="#2199D6"/>
<path d="M54.9947 13.2226C54.8629 14.0133 54.2699 14.5404 53.4792 14.5404C53.0839 14.5404 52.7544 14.4087 52.5568 14.1451C52.3591 13.8815 52.2932 13.5521 52.3591 13.2226C52.4909 12.432 53.0839 11.9049 53.8746 11.9049C54.2699 11.9049 54.5993 12.0366 54.797 12.3002C54.9288 12.4979 55.0606 12.8273 54.9947 13.2226ZM56.8396 10.5871H55.5218C55.39 10.5871 55.3241 10.653 55.2582 10.7847L55.1924 11.1801L55.1265 11.0483C54.8629 10.653 54.204 10.4553 53.5451 10.4553C52.0297 10.4553 50.7778 11.5754 50.5142 13.1568C50.3824 13.9474 50.5801 14.6722 51.0413 15.1993C51.4366 15.6606 52.0297 15.8582 52.7544 15.8582C53.9404 15.8582 54.5993 15.0676 54.5993 15.0676L54.5335 15.4629C54.5335 15.5947 54.5993 15.7264 54.797 15.7264H55.983C56.1807 15.7264 56.3125 15.5947 56.3784 15.397L57.1031 10.7847C57.1031 10.7188 56.9714 10.5871 56.8396 10.5871Z" fill="#2199D6"/>
<path d="M58.4209 8.14912L57.2349 15.5287C57.2349 15.6605 57.3008 15.7923 57.4984 15.7923H58.6844C58.8821 15.7923 59.0139 15.6605 59.0798 15.4629L60.1999 8.21501C60.1999 8.08323 60.134 7.95145 59.9363 7.95145H58.6185C58.5527 7.95145 58.4868 8.08323 58.4209 8.14912Z" fill="#2199D6"/>
<path d="M12.2985 17.176L12.4961 15.7923H12.0349H9.72876L11.3101 5.71121C11.3101 5.71121 11.3101 5.64532 11.376 5.64532H11.4419H15.3294C16.5813 5.64532 17.5037 5.90888 17.9649 6.436C18.1626 6.69955 18.2944 6.96311 18.3603 7.22667C18.4262 7.55612 18.4262 7.88556 18.3603 8.34679V8.61035L18.558 8.74213C18.7556 8.80802 18.8874 8.9398 19.0192 9.07157C19.2168 9.26924 19.3486 9.5328 19.3486 9.86225C19.4145 10.1917 19.4145 10.587 19.2827 11.0483C19.151 11.5754 19.0192 11.9707 18.8215 12.366C18.6238 12.6955 18.3603 12.9591 18.0967 13.2226C17.8332 13.4203 17.4378 13.5521 17.1084 13.6838C16.713 13.7497 16.3177 13.8156 15.8565 13.8156H15.527C15.3294 13.8156 15.1317 13.8815 14.934 14.0133C14.8023 14.1451 14.6705 14.3427 14.6046 14.5404V14.6722L14.2092 17.1101V17.176V17.2419C14.2092 17.2419 14.2092 17.2419 14.1434 17.2419H12.2985V17.176Z" fill="#263577"/>
<path d="M18.8212 8.34678C18.8212 8.41266 18.8212 8.47856 18.7553 8.54445C18.2282 11.18 16.5151 12.0366 14.2749 12.0366H13.1547C12.8912 12.0366 12.6276 12.2343 12.6276 12.4978L12.0346 16.1876L11.9028 17.2419C11.9028 17.4395 12.0346 17.5713 12.1664 17.5713H14.209C14.4725 17.5713 14.6702 17.3736 14.6702 17.176V17.0442L15.0655 14.6722V14.5404C15.1314 14.2768 15.3291 14.1451 15.5268 14.1451H15.8562C17.8329 14.1451 19.3483 13.3544 19.7437 11.0482C19.9413 10.0599 19.8096 9.26923 19.3483 8.74211C19.2166 8.61033 19.0189 8.47855 18.8212 8.34678Z" fill="#2199D6"/>
<path d="M18.2942 8.14912C18.2283 8.14912 18.1624 8.08323 18.0306 8.08323C17.9647 8.08323 17.8329 8.01734 17.7671 8.01734C17.4376 7.95145 17.1082 7.95145 16.7787 7.95145H13.7478C13.6819 7.95145 13.616 7.95145 13.5501 8.01734C13.4184 8.08323 13.2866 8.21501 13.2866 8.34679L12.6277 12.4319V12.5637C12.6936 12.3002 12.8912 12.1025 13.1548 12.1025H14.2749C16.5152 12.1025 18.2283 11.18 18.7554 8.61035C18.7554 8.54446 18.7554 8.47857 18.8213 8.41268C18.6895 8.34679 18.5577 8.2809 18.426 8.21501C18.3601 8.14912 18.2942 8.14912 18.2942 8.14912Z" fill="#252C5E"/>
<path d="M13.2866 8.3468C13.2866 8.21502 13.4184 8.08325 13.5502 8.01736C13.6161 8.01736 13.682 7.95147 13.7478 7.95147H16.7788C17.1082 7.95147 17.5035 7.95147 17.7671 8.01736C17.833 8.01736 17.9648 8.01736 18.0307 8.08325C18.0966 8.08325 18.1624 8.14914 18.2942 8.14914C18.3601 8.14914 18.3601 8.14914 18.426 8.21503C18.5578 8.28092 18.6896 8.34681 18.8213 8.41269C18.9531 7.42435 18.8213 6.76546 18.2942 6.17245C17.7012 5.51356 16.647 5.25 15.3292 5.25H11.4417C11.1782 5.25 10.9146 5.44767 10.9146 5.71122L9.33325 15.8582C9.33325 16.0559 9.46503 16.2535 9.6627 16.2535H12.0347L12.6277 12.432L13.2866 8.3468Z" fill="#263577"/>
</svg>
