<svg width="70" height="24" viewBox="0 0 70 24" fill="none" xmlns="http://www.w3.org/2000/svg">
<path d="M42.0324 6.34911C42.0324 5.42019 42.7616 4.66667 43.6595 4.66667C44.559 4.66667 45.2877 5.42019 45.2877 6.34911C45.2877 7.27858 44.559 8.03046 43.6595 8.03046C42.7616 8.03046 42.0324 7.27858 42.0324 6.34911Z" fill="#862165"/>
<path d="M46.7107 6.0426L50.011 5.43224V18.5262H46.7107V6.0426Z" fill="#862165"/>
<path d="M51.5311 6.0426V18.5262H54.8334V5.43224L51.5311 6.0426Z" fill="#862165"/>
<path d="M42.0096 8.949V18.5262H45.3114V8.949H42.0096Z" fill="#862165"/>
<path d="M35.5466 13.1385C35.5466 10.3255 37.0965 8.91024 40.1471 8.8086C40.1471 8.8086 40.6981 8.78674 41.0233 8.85833V11.6577C39.0895 11.7265 38.8759 12.4483 38.8759 14.1319V18.5262H35.5466V13.1385Z" fill="#862165"/>
<path d="M31.1724 8.98322C31.0542 9.3039 30.5162 10.7633 29.3088 12.2724V5.43224L25.9012 6.12893V18.5262H29.3088V14.6936C30.2955 16.2236 30.7831 18.5262 30.7831 18.5262H34.8638C34.4603 16.7919 32.6947 13.5947 32.6947 13.5947C34.28 11.5172 34.9754 9.30476 35.0864 8.93811H31.1892C31.1851 8.9489 31.1795 8.96406 31.1724 8.98322Z" fill="#862165"/>
<path d="M18.8033 9.31186C18.8033 10.2107 19.7699 10.2758 20.1872 10.3036C23.2473 10.5156 25.0712 12.0637 25.0712 14.4455C25.0712 16.5471 23.4403 18.6667 19.8022 18.6667C18.1153 18.6667 16.6759 18.4951 15.3994 18.1481V15.0892C16.2518 15.4515 17.6563 15.8318 19.1031 15.8318C20.4235 15.8318 21.2088 15.3805 21.2088 14.6133C21.2088 13.6877 20.2565 13.6274 19.8913 13.6043L19.8873 13.604C15.6257 13.304 15.1667 10.6987 15.1667 9.59273C15.1667 7.67204 16.4856 5.43224 20.2078 5.43224C22.3669 5.43224 23.5308 5.78031 24.5334 6.14259L24.5836 6.15844V9.12936L24.5461 9.11843C24.1436 8.94248 23.6709 8.76981 23.6709 8.76981C22.8216 8.50698 21.634 8.22721 20.716 8.22721C20.194 8.22721 18.8033 8.22721 18.8033 9.31186Z" fill="#862165"/>
</svg>
