<svg width="20" height="20" viewBox="0 0 20 20" fill="none" xmlns="http://www.w3.org/2000/svg">
<path d="M16.6271 6.61421C16.6373 6.76053 16.6373 6.90685 16.6373 7.05451C16.6373 11.5539 13.1977 16.7431 6.90813 16.7431V16.7404C5.05019 16.7431 3.23083 16.2131 1.66675 15.2138C1.93691 15.2462 2.20842 15.2624 2.48061 15.2631C4.02033 15.2644 5.51603 14.7499 6.72735 13.8026C5.26415 13.775 3.98105 12.8249 3.53282 11.4379C4.04538 11.5364 4.57351 11.5162 5.07659 11.3793C3.48136 11.0583 2.33369 9.66258 2.33369 8.04164V7.99849C2.80901 8.26213 3.3412 8.40844 3.88558 8.42463C2.38311 7.42469 1.91998 5.43424 2.82729 3.87803C4.56336 6.00535 7.1248 7.2986 9.87448 7.43547C9.5989 6.25281 9.97537 5.0135 10.8637 4.18213C12.2409 2.89292 14.4069 2.959 15.7016 4.32979C16.4673 4.17943 17.2013 3.89961 17.873 3.50314C17.6177 4.29136 17.0835 4.96091 16.3698 5.38637C17.0476 5.30681 17.7098 5.1261 18.3334 4.85033C17.8743 5.53538 17.2961 6.13211 16.6271 6.61421Z" fill="#7D8FA9"/>
</svg>
