<svg width="70" height="24" viewBox="0 0 70 24" fill="none" xmlns="http://www.w3.org/2000/svg">
<path fill-rule="evenodd" clip-rule="evenodd" d="M25.667 17.4216H22.436L20.0132 7.90651C19.8982 7.46881 19.654 7.08187 19.2948 6.89949C18.3985 6.44118 17.4108 6.07644 16.3333 5.89248V5.52615H21.5381C22.2564 5.52615 22.7952 6.07644 22.885 6.71554L24.1421 13.5791L27.3714 5.52615H30.5126L25.667 17.4216ZM32.3079 17.4216H29.2565L31.7692 5.52615H34.8205L32.3079 17.4216ZM38.7696 8.81974C38.8594 8.17906 39.3982 7.81273 40.0267 7.81273C41.0144 7.72075 42.0904 7.9047 42.9883 8.36143L43.527 5.80029C42.6291 5.43396 41.6414 5.25 40.745 5.25C37.7835 5.25 35.6284 6.89769 35.6284 9.18448C35.6284 10.9242 37.1549 11.8376 38.2324 12.3879C39.3982 12.9366 39.8471 13.3029 39.7573 13.8516C39.7573 14.6747 38.8594 15.041 37.963 15.041C36.8855 15.041 35.808 14.7667 34.8219 14.3083L34.2831 16.8711C35.3606 17.3278 36.5264 17.5118 37.6039 17.5118C40.9246 17.6021 42.9883 15.956 42.9883 13.4853C42.9883 10.3739 38.7696 10.1915 38.7696 8.81974V8.81974ZM53.6654 17.4216L51.2426 5.52615H48.6402C48.1014 5.52615 47.5626 5.89248 47.3831 6.44118L42.8966 17.4216H46.0377L46.6647 15.6835H50.5242L50.8834 17.4216H53.6654ZM49.0895 8.72827L49.9859 13.2115H47.4733L49.0895 8.72827Z" fill="#172B85"/>
</svg>
